<?xml version="1.0" standalone="no"?>
<!DOCTYPE svg PUBLIC "-//W3C//DTD SVG 20010904//EN"
 "http://www.w3.org/TR/2001/REC-SVG-20010904/DTD/svg10.dtd">
<svg version="1.0" xmlns="http://www.w3.org/2000/svg"
 width="107.000000pt" height="128.000000pt" viewBox="0 0 107.000000 128.000000"
 preserveAspectRatio="xMidYMid meet">

<g transform="translate(0.000000,128.000000) scale(0.100000,-0.100000)"
fill="#FF2400" stroke="none">
<path d="M855 1226 c-20 -14 -15 -46 8 -46 24 0 51 26 44 44 -8 20 -27 21 -52
2z"/>
<path d="M592 1178 c-7 -7 -12 -35 -12 -63 0 -50 -18 -128 -45 -190 -7 -16
-25 -61 -41 -100 -47 -117 -146 -264 -247 -368 -69 -70 -102 -90 -162 -97 -43
-4 -50 -8 -53 -29 -4 -23 -2 -24 49 -17 87 12 133 47 259 195 l85 101 50 0
c73 0 150 -24 211 -64 56 -38 82 -44 101 -25 9 9 7 20 -7 46 -10 19 -26 64
-36 100 l-18 66 65 58 c35 32 71 58 81 59 12 0 25 -29 53 -117 51 -163 65
-233 65 -344 0 -220 -70 -297 -293 -322 -153 -17 -316 20 -331 76 -6 24 -20
16 -30 -20 -18 -60 112 -98 307 -91 140 6 208 24 280 76 63 46 92 85 112 157
31 107 9 270 -70 525 -15 47 -30 122 -34 167 -8 97 -19 115 -59 92 -25 -14
-27 -19 -24 -70 3 -64 -13 -99 -76 -154 -30 -26 -46 -35 -53 -28 -12 12 -35
155 -45 277 -9 98 -43 143 -82 104z m43 -200 c2 -7 9 -62 14 -122 12 -122 11
-125 -50 -157 -46 -23 -97 -25 -106 -4 -3 9 10 50 29 93 19 42 45 105 59 140
22 58 44 78 54 50z m49 -304 c10 -25 7 -64 -4 -64 -18 0 -70 30 -70 40 0 11
40 40 56 40 7 0 15 -7 18 -16z"/>
</g>
</svg>
