<?xml version="1.0" standalone="no"?>
<!DOCTYPE svg PUBLIC "-//W3C//DTD SVG 20010904//EN"
 "http://www.w3.org/TR/2001/REC-SVG-20010904/DTD/svg10.dtd">
<svg version="1.0" xmlns="http://www.w3.org/2000/svg"
 width="1280.000000pt" height="1208.000000pt" viewBox="0 0 1280.000000 1208.000000"
 preserveAspectRatio="xMidYMid meet">
<metadata>
Created by potrace 1.15, written by Peter Selinger 2001-2017
</metadata>
<g transform="translate(0.000000,1208.000000) scale(0.100000,-0.100000)"
fill="#FF2400" stroke="none">
<path d="M6839 12065 c-376 -71 -745 -384 -863 -732 -65 -190 -61 -308 17
-613 61 -239 148 -510 302 -945 194 -548 240 -701 252 -840 13 -156 -46 -203
-220 -175 -129 21 -176 38 -197 73 -68 111 -75 416 -18 772 33 210 16 291 -77
373 -65 57 -128 76 -245 75 -264 -2 -651 -192 -809 -397 -103 -134 -123 -256
-62 -381 44 -88 113 -156 286 -280 200 -142 255 -197 255 -252 0 -33 -48 -121
-90 -167 -56 -60 -116 -82 -269 -96 -132 -12 -199 -5 -277 29 -78 35 -187 117
-286 218 -168 169 -278 315 -593 783 -388 576 -512 713 -753 834 -315 158
-772 193 -1093 82 -121 -41 -196 -85 -268 -156 -108 -107 -147 -235 -118 -383
97 -491 707 -1022 1570 -1366 115 -46 293 -105 607 -201 175 -54 307 -117 371
-179 44 -42 49 -52 49 -90 0 -23 -5 -52 -12 -64 -33 -64 -120 -154 -263 -274
-127 -107 -181 -144 -260 -184 -102 -50 -194 -79 -252 -79 -29 0 -33 3 -38 38
-14 86 -18 99 -40 138 -70 121 -218 197 -385 197 -188 0 -330 -84 -407 -241
-35 -70 -38 -82 -38 -163 0 -81 2 -90 30 -131 42 -58 114 -100 264 -149 204
-67 262 -113 277 -221 7 -48 -19 -202 -37 -224 -17 -21 -116 -17 -195 7 -144
44 -342 149 -559 297 -253 172 -468 354 -735 622 -107 108 -222 214 -254 235
-79 51 -174 90 -268 109 -416 85 -867 -241 -1037 -749 -89 -268 -87 -589 5
-847 172 -478 625 -790 1299 -894 149 -23 594 -27 715 -5 114 19 257 57 330
86 111 44 300 96 413 112 92 13 120 14 180 3 63 -11 77 -18 113 -54 49 -48 60
-83 74 -224 16 -173 0 -195 -249 -335 -144 -81 -913 -471 -980 -497 -147 -57
-389 -101 -657 -119 -87 -6 -229 -16 -315 -21 -279 -19 -462 -61 -631 -145
-218 -110 -340 -261 -384 -476 -62 -305 110 -728 412 -1019 408 -392 871 -370
1429 69 90 70 185 154 360 317 77 72 199 184 270 248 72 65 213 202 315 305
210 212 249 238 374 250 105 10 264 -3 339 -28 216 -72 385 -265 433 -493 11
-49 14 -106 12 -174 -4 -88 -8 -108 -32 -148 -62 -107 -209 -269 -545 -606
-375 -376 -492 -503 -608 -657 -333 -444 -335 -836 -6 -1160 159 -157 405
-303 618 -367 56 -16 98 -21 205 -21 121 0 142 3 207 26 407 149 621 673 673
1649 13 251 25 346 54 464 64 250 200 388 411 417 149 20 307 -4 615 -95 85
-25 248 -68 362 -96 113 -27 213 -52 221 -56 19 -7 47 -80 47 -124 0 -60 -35
-186 -143 -510 -115 -344 -153 -471 -192 -630 -69 -287 -87 -586 -45 -745 148
-559 659 -778 1122 -480 153 99 331 312 423 508 68 143 89 231 88 367 -1 163
-25 236 -188 570 -74 151 -159 336 -189 411 -30 75 -91 213 -136 306 -44 94
-80 182 -80 196 0 80 159 165 451 241 266 70 506 85 611 38 51 -22 58 -40 58
-167 1 -155 56 -327 139 -432 114 -143 373 -259 680 -303 268 -40 484 64 591
284 55 113 71 181 77 333 11 275 -37 436 -168 565 -73 71 -150 117 -367 218
-249 115 -326 173 -346 262 -17 76 174 178 445 237 221 47 558 79 662 61 149
-24 302 -192 677 -740 236 -345 290 -418 358 -481 331 -303 1107 -283 1607 42
106 68 270 234 313 316 53 101 66 155 65 273 -1 82 -7 125 -28 195 -155 531
-813 1119 -1423 1273 -93 23 -127 26 -257 26 -139 0 -159 -2 -270 -33 -105
-30 -136 -34 -245 -35 -142 -1 -210 13 -328 69 -198 93 -360 251 -546 530 -60
90 -66 104 -66 150 0 67 36 141 100 209 52 55 122 96 162 96 13 0 48 -16 78
-36 153 -97 428 -125 620 -63 203 66 346 212 395 404 20 78 19 116 -5 209 -75
296 -358 506 -680 506 -187 0 -304 -59 -401 -202 -21 -31 -43 -59 -49 -63 -26
-16 -124 69 -189 165 -102 150 -134 235 -135 350 0 64 4 85 32 144 62 133 223
264 510 415 194 102 219 111 301 111 110 0 190 -34 453 -192 330 -198 503
-258 743 -258 234 0 438 66 699 228 263 163 464 359 559 547 53 105 72 191 71
315 0 96 -5 128 -27 195 -103 313 -457 592 -887 700 -323 81 -552 55 -860
-100 -302 -151 -527 -315 -1130 -825 -378 -319 -430 -361 -540 -434 -111 -74
-150 -86 -196 -61 -19 10 -46 33 -60 52 -36 48 -99 186 -118 263 -23 89 -31
251 -17 322 13 60 43 108 67 108 17 0 211 82 407 171 371 170 512 307 511 499
0 42 -8 102 -18 135 -27 92 -120 273 -176 342 -213 265 -556 352 -800 202 -93
-57 -171 -163 -213 -291 -18 -53 -37 -188 -37 -265 0 -45 -5 -58 -32 -89 -95
-108 -337 -200 -592 -225 -242 -23 -380 27 -506 185 -145 183 -244 486 -226
694 6 73 20 118 156 502 160 454 214 761 176 1016 -50 342 -228 578 -496 659
-77 23 -247 28 -341 10z"/>
</g>
</svg>
